<svg xmlns="http://www.w3.org/2000/svg" viewBox="0 0 32 32">
  <defs>
    <linearGradient id="grad" x1="0%" y1="0%" x2="100%" y2="100%">
      <stop offset="0%" style="stop-color:#0ea5e9"/>
      <stop offset="100%" style="stop-color:#0369a1"/>
    </linearGradient>
  </defs>
  <rect width="32" height="32" rx="6" fill="url(#grad)"/>
  <path d="M6 20 C6 20, 8 14, 12 14 C14 14, 16 16, 18 16 C22 16, 26 12, 26 12 L26 22 C26 22, 24 24, 22 24 L10 24 C8 24, 6 22, 6 20 Z" fill="white" opacity="0.95"/>
  <path d="M10 18 C10 18, 12 16, 14 16 C16 16, 16 18, 18 18 C20 18, 22 16, 22 16" stroke="#0ea5e9" stroke-width="1.5" fill="none" stroke-linecap="round"/>
  <circle cx="20" cy="18" r="1.5" fill="#0ea5e9"/>
</svg>
